<svg id="Layer_1" data-name="Layer 1" xmlns="http://www.w3.org/2000/svg" viewBox="0 0 1790.63 728.86"><defs><style>.cls-1{fill:#ffcc04;}.cls-2{fill:#10294b;}</style></defs><path class="cls-1" d="M317.81,702.74c18.73,4.87,31.41,4.47,33.88-1.08,6.26-14-15.88-26.9-38.36-37.63-2-.94-3.73-1.78-5.18-2.5-2.31-1.17-6.06-3.11-10.71-5.55-2.9,2.73-16.06,16.29-13,34.74,9.2,3.35,18.18,6.58,24.82,9.09C310.89,700.43,316.77,702.47,317.81,702.74Z" transform="translate(-84.68 -135.57)"/><path class="cls-1" d="M223,641.75c-4.39,12.7,6.05,25.91,27.91,35.34,2.18.93,4.6,2,7.22,3.14l6.35,2.78c.68-16.65,9.13-29.44,15.06-36.42-17-9-36.94-19.6-48.28-25.64C228.87,626.42,225.77,633.84,223,641.75Z" transform="translate(-84.68 -135.57)"/><path class="cls-1" d="M371.69,689.7c12.17,5.31,19.62,4.09,22.44.65s5-10.05-4.68-24.5-22.07-24.53-37.88-37.41a68.51,68.51,0,0,0-15,25.51C351.16,662,368,673.87,371.69,689.7Z" transform="translate(-84.68 -135.57)"/><path class="cls-1" d="M316.93,644.11l2.08,1a87.6,87.6,0,0,1,17.17-28.74c-9.79-7.38-21-15.47-33.77-24.61-25-17.93-39.49-19.8-47.24-18.2-5.59,1.15-10,4.56-13.58,10.44-6.42,10.63-3.71,17.68-3.68,17.75.13.26.23.52.33.78C256.45,612.26,305.45,638.33,316.93,644.11Z" transform="translate(-84.68 -135.57)"/><path class="cls-1" d="M502.94,410c13.18-1.44,31.44-.12,51.85,10.81,4.36-26.74,10-48,14.75-60.17,5-12.85,2.47-24.86-2.81-29.22s-14.11-6.11-28.82,2.75c-12.1,7.28-17.57,17.81-25.25,32.6-8.28,15.95-12.29,30.29-15.79,44.13C498.81,410.53,500.83,410.19,502.94,410Z" transform="translate(-84.68 -135.57)"/><path class="cls-1" d="M492,432.18c-.87,4.06-2.08,9.45-4,17.64-1.66,7-10.18,40.7-17.21,50.75h0s-7.41,37.31,29.72,67.66a319.21,319.21,0,0,0,43,29.3c1.16-4.81,2.2-9.63,2.91-14.62,3.35-23.46,2.91-36.15,2.15-46-1.67-21.45-.71-62.2,3.22-95.27C526.43,425.42,504.63,428,492,432.18Z" transform="translate(-84.68 -135.57)"/><path class="cls-1" d="M111.11,448.43a21.92,21.92,0,0,0-10.28,3.44c-7.33,4.7-9.15,10.5-10.06,16.79-1.1,7.59,3.41,16,7.09,18.18,6.72,4,9.8,4.46,24.62,8,7.34,1.76,21.53,4.85,30.76,6.9A211.21,211.21,0,0,1,111.11,448.43Z" transform="translate(-84.68 -135.57)"/><path class="cls-1" d="M575.33,741.53c-10.78-14.35-22.11-26.52-30.66-49.23a144.76,144.76,0,0,1-6.91-25.46c-17.55-10.16-51.2-30.76-64.92-46.87C454.15,598,443,555.48,458.24,502.29A88.86,88.86,0,0,1,444,495.58a210,210,0,0,1-148.59,61.35c-5.94,0-11.81-.26-17.62-.74l-.49.23c11,3.4,23.08,9.88,36.5,19.5,16.82,12.05,31.1,22.38,43.14,31.8l.48.38c21.3,16.71,35.61,28.64,44.3,44.2,4.71,8.39,10.06,18.79,11,28,1,9.54-2.69,19.73-8.57,25.92-6.24,6.56-15.25,8.53-26.9,5.9a64.35,64.35,0,0,1-7.85-2.33c-7.78,17.16-28.33,18.29-51.76,13a226,226,0,0,1-25.26-7.5c6.66,11.83,18.1,29.63,31.29,40.91,34.41,29.45,51.59,29.85,71.67,51.62,21.69,23.52,34.31,55,36.61,56.61A335.59,335.59,0,0,0,601.84,779C594.93,767.62,585.59,755.19,575.33,741.53Z" transform="translate(-84.68 -135.57)"/><path class="cls-1" d="M294.69,547.19c16.33-10.61,33.14-32.07,29.19-68a10.54,10.54,0,0,0,1.78-2.1c.8-1.28,20.18-31.22,70.42-23.36a8.53,8.53,0,0,0,1.24.11c11.29,13.47,17.8,20.93,25.87,27.69a152.78,152.78,0,0,0,20.82,14,210,210,0,0,0,62.06-149.31c0-116.34-94.31-210.65-210.65-210.65S84.69,230,84.69,346.29a209.7,209.7,0,0,0,26.42,102.14c4.34-.41,9.18.06,15.18.48,18.85,1.32,34.73,3.59,47.23,5.66,5.42,28.08-5.92,43.81-11.11,49.31l-1.16-.28c-1.32-.34-4.26-1-8-1.84a209.79,209.79,0,0,0,124.52,54.45l3.71-1.8C289.1,550.68,293.11,548.8,294.69,547.19Zm75-128.07c3.88,5.18,7.45,9.8,10.6,13.82-32.52-.17-52.52,13.68-62.76,23.78a360.25,360.25,0,0,0-18.18-40c8.59-12.15,23.62-26.35,47.82-28.91,13.71,19.09,13.52,19.35,22.45,31.31Zm-59.57-78.7h0c5.84,7.22,15.19,18.67,24,29.94-19.65,4.75-34.52,15.84-45,27.93-5-8.67-10.77-18.74-11.55-20.09a166.85,166.85,0,0,0-11.31-17.38c7.93-11.4,23.31-27.12,43.79-20.4ZM243.43,300c3.44-6.67,11.06-12.1,18.6-11.93,8.06.18,13.44,6.69,22,17.05,3.58,4.33,7.55,9.64,11,14.48-17.06,1.93-31,12.89-40.75,24.65-.9-1.55-1.83-3.24-2.81-5.15-6.86-13.41-14.07-27.56-8.11-39.1Zm-18,218.85c-12.53-3.54-28.84-7.29-42.13-10.26,6.71-10.35,13.34-27,10.51-50.49h0c8.21,1.35,28.85,5.72,51.1,10.38C248.23,508.89,227,518.23,225.43,518.84Zm22.43,7.26c8.83-9.33,17.83-25.75,16.83-53.52,15,3.09,29.34,5.95,39.65,7.74,5.23,42.27-25,53.57-29.88,55.09-8.48-3.15-18.23-6.48-26.6-9.31Z" transform="translate(-84.68 -135.57)"/><path class="cls-2" d="M637.52,291.82h-9.44a6.08,6.08,0,0,1-6.08-6.08h0v-5.62a6.08,6.08,0,0,1,6.08-6.07h49.47a6.09,6.09,0,0,1,6.08,6.07v5.62a6.08,6.08,0,0,1-6.08,6.08h-9.44a6.08,6.08,0,0,0-6.08,6.07v84.36a6.07,6.07,0,0,1-6.07,6.07h-6.27a6.07,6.07,0,0,1-6.07-6.07h0V297.89a6.08,6.08,0,0,0-6.09-6.07Z" transform="translate(-84.68 -135.57)"/><path class="cls-2" d="M757,280.12V382.25a6.07,6.07,0,0,1-6.07,6.07h-6.28a6.08,6.08,0,0,1-6.08-6.07v-37a6.07,6.07,0,0,0-6.07-6.07H719.6a6.08,6.08,0,0,0-6.08,6.07v37a6.07,6.07,0,0,1-6.07,6.07h-6.29a6.08,6.08,0,0,1-6.08-6.07V280.12a6.08,6.08,0,0,1,6.08-6.07h6.29a6.07,6.07,0,0,1,6.07,6.07h0v35.69a6.08,6.08,0,0,0,6.08,6.07h12.93a6.07,6.07,0,0,0,6.07-6.07h0V280.12a6.08,6.08,0,0,1,6.08-6.07H751a6.07,6.07,0,0,1,6.07,6.07Z" transform="translate(-84.68 -135.57)"/><path class="cls-2" d="M768.5,382.25V280.12a6.07,6.07,0,0,1,6.07-6.07h49.12a6.09,6.09,0,0,1,6.08,6.07v5.13a6.09,6.09,0,0,1-6.08,6.07H792.84a6.07,6.07,0,0,0-6.07,6.07h0v19.08a6.08,6.08,0,0,0,6.07,6.08h25.73a6.07,6.07,0,0,1,6.07,6.07h0v5.13a6.07,6.07,0,0,1-6.07,6.07H792.84a6.08,6.08,0,0,0-6.07,6.08v18.91a6.07,6.07,0,0,0,6.07,6.07h30.85a6.09,6.09,0,0,1,6.08,6.07v5.3a6.09,6.09,0,0,1-6.08,6.07H774.57a6.07,6.07,0,0,1-6.07-6.07Z" transform="translate(-84.68 -135.57)"/><path class="cls-2" d="M906.12,274.05h6.12a6.07,6.07,0,0,1,6.07,6.07h0V364a6.08,6.08,0,0,0,6.08,6.07h30.87a6.07,6.07,0,0,1,6.07,6.07h0v6.13a6.07,6.07,0,0,1-6.07,6.07H906.12a6.08,6.08,0,0,1-6.08-6.07V280.12A6.08,6.08,0,0,1,906.12,274.05Z" transform="translate(-84.68 -135.57)"/><path class="cls-2" d="M1018.12,384.86l-2.29-15.5a4.08,4.08,0,0,0-4-3.46H995.89a4,4,0,0,0-4,3.46l-2.3,15.5a4,4,0,0,1-4,3.46h-9.2a4.06,4.06,0,0,1-4-4.07,3.08,3.08,0,0,1,0-.61l16.67-106.17a4,4,0,0,1,4-3.42h21.63a4.06,4.06,0,0,1,4,3.42l16.67,106.17a4.06,4.06,0,0,1-3.38,4.63,4.21,4.21,0,0,1-.62.05h-9.2A4.05,4.05,0,0,1,1018.12,384.86Zm-18.37-35.24h8.2a4.05,4.05,0,0,0,4-4.06c0-.19,0-.39,0-.59l-6.08-40.62a2,2,0,0,0-4,0L995.74,345a4,4,0,0,0,3.29,4.6A4.36,4.36,0,0,0,999.75,349.62Z" transform="translate(-84.68 -135.57)"/><path class="cls-2" d="M1107.49,356.26c0,16.78-9.8,32.06-33.22,32.06h-21.94a6.12,6.12,0,0,1-6.13-6.13h0v-102a6.12,6.12,0,0,1,6.13-6.13h20c23.25,0,31.56,15.11,31.56,30.56,0,8.25-1.65,14.68-5,19.28a6.09,6.09,0,0,0,.5,7.9C1104.51,337.05,1107.49,344.75,1107.49,356.26Zm-45-59.81v20a6.14,6.14,0,0,0,6.13,6.13h3.17c15.12,0,15.28-12.63,15.28-16.78s-.16-15.45-15.28-15.45h-3.17a6.13,6.13,0,0,0-6.14,6.1Zm10.8,42h-4.67a6.14,6.14,0,0,0-6.13,6.13v21.29a6.12,6.12,0,0,0,6.13,6.13h5.66c14,0,15.78-11.29,15.78-16.11,0-4.61-.37-17.36-16.78-17.36Z" transform="translate(-84.68 -135.57)"/><path class="cls-2" d="M1180.57,305.6v51.16c0,19.6-10.13,33.72-30.72,33.72-20.77,0-30.57-14.12-30.57-33.72V305.6c0-19.76,10-33.71,30.57-33.71S1180.57,286.34,1180.57,305.6Zm-17.44,0c0-4.81-.16-16.61-13.28-16.61s-13.29,11.8-13.29,16.61v51.16c0,4.82.33,16.61,13.29,16.61,13.12,0,13.28-11.79,13.28-16.61Z" transform="translate(-84.68 -135.57)"/><path class="cls-2" d="M1239.69,342.13l11.6,38.36a6.08,6.08,0,0,1-4,7.57,6.27,6.27,0,0,1-1.77.26h-5.89a6.06,6.06,0,0,1-5.81-4.33l-11.22-37.58a6.13,6.13,0,0,0-5.87-4.34h-.84a6.05,6.05,0,0,0-6,6.07v34.1a6.07,6.07,0,0,1-6.07,6.07h-5.29a6.08,6.08,0,0,1-6.08-6.07V280.12a6.08,6.08,0,0,1,6.08-6.07h22c23.42,0,33.21,16.27,33.21,32.72,0,13-4.25,23-12,28.89A6,6,0,0,0,1239.69,342.13ZM1219.45,325c15.94,0,16.94-12.63,16.94-17.94,0-4.82-2.17-16.28-15.94-16.28h-4.56a6.08,6.08,0,0,0-6.08,6.08V319a6.08,6.08,0,0,0,6.08,6.08Z" transform="translate(-84.68 -135.57)"/><path class="cls-2" d="M1310.19,383.14l-1.79-12.06a6.07,6.07,0,0,0-6-5.18H1290a6.08,6.08,0,0,0-6,5.18l-1.78,12.06a6.08,6.08,0,0,1-6,5.18h-5.1a6.08,6.08,0,0,1-6.08-6.07,5.84,5.84,0,0,1,.08-.93l16-102.13a6.07,6.07,0,0,1,6-5.13h18.18a6.06,6.06,0,0,1,6,5.13l16,102.13a6.09,6.09,0,0,1-5.09,6.93,5.67,5.67,0,0,1-.91.07h-5.1A6.07,6.07,0,0,1,1310.19,383.14Zm-18.12-33.52h8.2a4,4,0,0,0,4-3.95,5.49,5.49,0,0,0,0-.7l-6.1-40.77a2,2,0,0,0-4,0l-6.1,40.77a4,4,0,0,0,3.29,4.6A4.17,4.17,0,0,0,1292.07,349.62Z" transform="translate(-84.68 -135.57)"/><path class="cls-2" d="M1348,291.82h-9.44a6.08,6.08,0,0,1-6.08-6.08v-5.62a6.08,6.08,0,0,1,6.08-6.07H1388a6.07,6.07,0,0,1,6.07,6.07v5.62a6.08,6.08,0,0,1-6.07,6.08h-9.44a6.08,6.08,0,0,0-6.08,6.07v84.36a6.07,6.07,0,0,1-6.07,6.07h-6.29a6.07,6.07,0,0,1-6.07-6.07V297.89A6.09,6.09,0,0,0,1348,291.82Z" transform="translate(-84.68 -135.57)"/><path class="cls-2" d="M1465.07,305.6v51.16c0,19.6-10.13,33.72-30.72,33.72-20.77,0-30.56-14.12-30.56-33.72V305.6c0-19.76,10-33.71,30.56-33.71S1465.07,286.34,1465.07,305.6Zm-17.44,0c0-4.81-.16-16.61-13.28-16.61s-13.29,11.8-13.29,16.61v51.16c0,4.82.33,16.61,13.29,16.61,13.12,0,13.28-11.79,13.28-16.61Z" transform="translate(-84.68 -135.57)"/><path class="cls-2" d="M1528.09,342.13l11.6,38.4a6.08,6.08,0,0,1-4,7.57,6.32,6.32,0,0,1-1.77.26H1528a6.06,6.06,0,0,1-5.82-4.33l-11.22-37.58a6.12,6.12,0,0,0-5.86-4.34h-.85a6.05,6.05,0,0,0-6,6.07v34.1a6.09,6.09,0,0,1-6.08,6.07h-5.29a6.07,6.07,0,0,1-6.07-6.07V280.12a6.07,6.07,0,0,1,6.07-6.07h22c23.42,0,33.22,16.27,33.22,32.72,0,13-4.26,23-12,28.89A6,6,0,0,0,1528.09,342.13ZM1507.85,325c16,0,16.94-12.63,16.94-17.94,0-4.82-2.17-16.28-15.94-16.28h-4.56a6.08,6.08,0,0,0-6.07,6.08V319a6.08,6.08,0,0,0,6.07,6.08Z" transform="translate(-84.68 -135.57)"/><path class="cls-2" d="M1602.8,282l-18.4,56.92a6.25,6.25,0,0,0-.3,1.87v41.47a6.06,6.06,0,0,1-6.06,6.07h-6.13a6.07,6.07,0,0,1-6.07-6.07V340.79a6.38,6.38,0,0,0-.3-1.89L1546.85,282a6.07,6.07,0,0,1,3.83-7.68,5.85,5.85,0,0,1,1.94-.32h5.24a6.07,6.07,0,0,1,5.81,4.28l9.19,29.81a2,2,0,0,0,2.45,1.43,2,2,0,0,0,1.42-1.43l9.2-29.81a6.08,6.08,0,0,1,5.81-4.28H1597a6.06,6.06,0,0,1,6.08,6.05A6,6,0,0,1,1602.8,282Z" transform="translate(-84.68 -135.57)"/><path class="cls-2" d="M1689.09,345.53v36.69a6.07,6.07,0,0,1-6.07,6.07h-6.33a6.07,6.07,0,0,1-6.07-6.07V280.12a6.07,6.07,0,0,1,6.07-6.07h49.14a6.09,6.09,0,0,1,6.08,6.07v5.13a6.09,6.09,0,0,1-6.08,6.07h-30.7a6.08,6.08,0,0,0-6.08,6.07v19.08a6.08,6.08,0,0,0,6.08,6.08h24.56a6.07,6.07,0,0,1,6.07,6.07v4.8a6.07,6.07,0,0,1-6,6.11h-24.61A6.07,6.07,0,0,0,1689.09,345.53Z" transform="translate(-84.68 -135.57)"/><path class="cls-2" d="M1800.25,305.6v51.16c0,19.6-10.13,33.72-30.73,33.72-20.76,0-30.56-14.12-30.56-33.72V305.6c0-19.76,10-33.71,30.56-33.71S1800.25,286.34,1800.25,305.6Zm-17.44,0c0-4.81-.17-16.61-13.29-16.61s-13.29,11.8-13.29,16.61v51.16c0,4.82.33,16.61,13.29,16.61,13.12,0,13.29-11.79,13.29-16.61Z" transform="translate(-84.68 -135.57)"/><path class="cls-2" d="M1861.31,342.13l11.6,38.36a6.08,6.08,0,0,1-4.05,7.57,6.27,6.27,0,0,1-1.77.26h-5.89a6,6,0,0,1-5.81-4.33l-11.22-37.58a6.13,6.13,0,0,0-5.87-4.34h-.84a6.05,6.05,0,0,0-6,6.07v34.1a6.07,6.07,0,0,1-6.07,6.07h-5.29a6.08,6.08,0,0,1-6.08-6.07V280.12a6.08,6.08,0,0,1,6.08-6.07h22c23.42,0,33.22,16.27,33.22,32.72,0,13-4.25,23-12,28.89A6,6,0,0,0,1861.31,342.13ZM1841.07,325C1857,325,1858,312.41,1858,307.1c0-4.82-2.17-16.28-16-16.28h-4.56a6.08,6.08,0,0,0-6.08,6.08V319a6.08,6.08,0,0,0,6.08,6.08Z" transform="translate(-84.68 -135.57)"/><path class="cls-2" d="M684.85,443c51.38,0,72.88,36.44,72.88,70.69,0,50.65-28.42,80.53-70.69,80.53H670.88a9.71,9.71,0,0,0-9.71,9.71h0v80a9.73,9.73,0,0,1-9.72,9.71H633a9.72,9.72,0,0,1-9.72-9.71V452.66A9.72,9.72,0,0,1,633,443ZM661.17,545.1a9.7,9.7,0,0,0,9.7,9.71h11.82c36.07,0,36.8-29.51,36.8-40.08,0-8.74-4-35-34.62-35h-14a9.72,9.72,0,0,0-9.71,9.72Z" transform="translate(-84.68 -135.57)"/><path class="cls-2" d="M880.83,589.9l27.61,91.21a9.72,9.72,0,0,1-9.3,12.53H878.69a9.71,9.71,0,0,1-9.31-6.93L843.2,599.13a9.73,9.73,0,0,0-9.27-6.94H825.6a9.71,9.71,0,0,0-9.57,9.72v82a9.71,9.71,0,0,1-9.71,9.71H787.49a9.72,9.72,0,0,1-9.72-9.71V452.66a9.72,9.72,0,0,1,9.72-9.71h51.86c51.38,0,72.88,35.71,72.88,71.78,0,29.39-9.87,51.59-27.72,64.45A9.74,9.74,0,0,0,880.83,589.9Zm-43.66-35.09c35,0,37.16-27.69,37.16-39.35,0-10.57-4.73-35.71-35-35.71h-13.6a9.72,9.72,0,0,0-9.72,9.72V545.1a9.72,9.72,0,0,0,9.72,9.71Z" transform="translate(-84.68 -135.57)"/><path class="cls-2" d="M1072.56,512.18V624.41c0,43-22.23,74-67.41,74-45.55,0-67-31-67-74V512.18c0-43.36,21.87-74,67-74S1072.56,469.91,1072.56,512.18Zm-38.26,0c0-10.57-.36-36.44-29.15-36.44-28.42,0-29.16,25.87-29.16,36.44V624.41c0,10.57.73,36.44,29.16,36.44,28.79,0,29.15-25.87,29.15-36.44Z" transform="translate(-84.68 -135.57)"/><path class="cls-2" d="M1190.62,587.24h-15.06a9.72,9.72,0,0,1-9.72-9.71V559.79a9.72,9.72,0,0,1,9.72-9.71h48a9.73,9.73,0,0,1,9.72,9.71v64.62c0,43.36-22.23,74-67.43,74-53.92,0-67-40.08-67-74V512.18c0-43.36,21.86-74,67-74,56.48,0,67.43,39.72,67.43,74h0a4.37,4.37,0,0,1-4.37,4.37h-29.52a4.35,4.35,0,0,1-4.37-4.35v0h0c0-10.93-.37-37.17-29.17-37.17s-29.16,26.24-29.16,37.17V624.41c0,10.57.37,36.8,29.15,36.8S1195,635,1195,624.41V591.62a4.39,4.39,0,0,0-4.38-4.38Z" transform="translate(-84.68 -135.57)"/><path class="cls-2" d="M1361.82,589.9l27.61,91.21a9.72,9.72,0,0,1-9.31,12.53h-20.43a9.74,9.74,0,0,1-9.32-6.93l-26.18-87.58a9.73,9.73,0,0,0-9.27-6.94h-8.33a9.71,9.71,0,0,0-9.57,9.72v82a9.71,9.71,0,0,1-9.71,9.71h-18.83a9.72,9.72,0,0,1-9.72-9.71V452.66a9.72,9.72,0,0,1,9.72-9.71h51.86c51.38,0,72.88,35.71,72.88,71.78,0,29.39-9.87,51.59-27.72,64.45A9.74,9.74,0,0,0,1361.82,589.9Zm-43.66-35.09c35,0,37.17-27.69,37.17-39.35,0-10.57-4.74-35.71-35-35.71h-13.6a9.72,9.72,0,0,0-9.72,9.72V545.1a9.72,9.72,0,0,0,9.72,9.71Z" transform="translate(-84.68 -135.57)"/><path class="cls-2" d="M1419.46,683.93V452.66a9.72,9.72,0,0,1,9.72-9.71h115a9.73,9.73,0,0,1,9.72,9.71v18.47a9.73,9.73,0,0,1-9.72,9.71h-75a9.72,9.72,0,0,0-9.71,9.72v49.07a9.72,9.72,0,0,0,9.71,9.72h63.65a9.73,9.73,0,0,1,9.72,9.71v18.47a9.73,9.73,0,0,1-9.72,9.71h-63.65a9.72,9.72,0,0,0-9.71,9.72v48.71a9.71,9.71,0,0,0,9.71,9.71h75a9.72,9.72,0,0,1,9.72,9.72v18.83a9.73,9.73,0,0,1-9.72,9.71h-115A9.72,9.72,0,0,1,1419.46,683.93Z" transform="translate(-84.68 -135.57)"/><path class="cls-2" d="M1616.23,624.41c0,12,2.18,36.8,30.24,36.8,27.33,0,30.25-25.87,30.25-34.61,0-10.21-4-29.88-31.34-41.54-43.37-19.32-66-30.25-66-76.52,0-43.73,21.5-70.33,67-70.33,54.29,0,67.41,39.72,67.41,74h0a8.75,8.75,0,0,1-8.73,8.75h-19.69a8.74,8.74,0,0,1-8.74-8.74h0c0-10.93-2.92-37.17-30.25-37.17-32.06,0-30.24,28.43-30.24,36.08,0,12,6.56,25.5,33.88,36.07,32.07,12.75,63.77,28.42,63.77,79.44,0,43-22.23,71.78-67.41,71.78-53.93,0-67-40.08-67-74V610.53a8.74,8.74,0,0,1,8.74-8.74h19.32a8.74,8.74,0,0,1,8.75,8.73h0Z" transform="translate(-84.68 -135.57)"/><path class="cls-2" d="M1776.56,624.41c0,12,2.18,36.8,30.24,36.8,27.32,0,30.25-25.87,30.25-34.61,0-10.21-4-29.88-31.34-41.54-43.37-19.32-66-30.25-66-76.52,0-43.73,21.49-70.33,67-70.33,54.29,0,67.41,39.72,67.41,74h0a8.75,8.75,0,0,1-8.73,8.75h-19.6a8.74,8.74,0,0,1-8.74-8.74h0c0-10.93-2.93-37.17-30.25-37.17-32.07,0-30.24,28.43-30.24,36.08,0,12,6.56,25.5,33.88,36.07,32.07,12.75,63.77,28.42,63.77,79.44,0,43-22.23,71.78-67.41,71.78-53.94,0-67-40.08-67-74V610.53a8.74,8.74,0,0,1,8.74-8.74h19.31a8.74,8.74,0,0,1,8.75,8.73h0Z" transform="translate(-84.68 -135.57)"/></svg>